<svg width="32" height="32" viewBox="0 0 32 32" fill="none" xmlns="http://www.w3.org/2000/svg">
<path d="M23.9038 24.4369C23.8444 24.4369 23.7909 24.4131 23.7434 24.3656C23.7078 24.33 23.6899 24.2824 23.6899 24.2231V22.4768C23.6899 22.4174 23.7078 22.364 23.7434 22.3164C23.7909 22.2808 23.8444 22.263 23.9038 22.263H24.3136C24.5868 22.263 24.8066 22.162 24.9729 21.9601C25.1392 21.7581 25.2224 21.4849 25.2224 21.1404V18.2003C25.2224 17.6301 25.3055 17.1668 25.4718 16.8104C25.6381 16.4422 25.8935 16.169 26.238 15.9908C26.2974 15.9551 26.2915 15.9195 26.2202 15.8839C25.8757 15.7176 25.6203 15.4562 25.454 15.0999C25.2996 14.7435 25.2224 14.2802 25.2224 13.71V10.8411C25.2224 10.4967 25.1392 10.2234 24.9729 10.0215C24.8066 9.81956 24.5868 9.71856 24.3136 9.71856H23.9038C23.8444 9.71856 23.7909 9.70075 23.7434 9.66512C23.7078 9.61762 23.6899 9.56413 23.6899 9.50475V7.77631C23.6899 7.71694 23.7078 7.66944 23.7434 7.63375C23.7909 7.58625 23.8444 7.5625 23.9038 7.5625H25.4718C26.2083 7.5625 26.7666 7.75256 27.1468 8.13269C27.5388 8.50094 27.7348 9.04144 27.7348 9.75419V13.3714C27.7348 13.8585 27.8179 14.2327 27.9843 14.494C28.1624 14.7435 28.4298 14.8919 28.7861 14.9395C28.9287 14.9514 28.9999 15.0286 28.9999 15.1711V16.7214C28.9999 16.852 28.9287 16.9292 28.7861 16.953C28.0853 17.0361 27.7348 17.5647 27.7348 18.5389V22.2274C27.7348 22.9401 27.5388 23.4866 27.1468 23.8667C26.7548 24.2468 26.1964 24.4369 25.4718 24.4369H23.9038Z" fill="#47BE9B"/>
<path d="M6.52812 24.4369C5.80349 24.4369 5.24517 24.2468 4.85316 23.8667C4.46114 23.4866 4.26513 22.9401 4.26513 22.2274V18.5389C4.26513 17.5647 3.9147 17.0361 3.21382 16.953C3.07127 16.9292 3 16.852 3 16.7214V15.1711C3 15.0286 3.07127 14.9514 3.21382 14.9395C3.5702 14.8919 3.83154 14.7435 3.99785 14.494C4.17604 14.2327 4.26513 13.8585 4.26513 13.3714V9.75419C4.26513 9.04144 4.4552 8.50094 4.83534 8.13269C5.22735 7.75256 5.79161 7.5625 6.52812 7.5625H8.09619C8.15556 7.5625 8.20306 7.58625 8.23875 7.63375C8.28625 7.66944 8.31 7.71694 8.31 7.77631V9.50475C8.31 9.56413 8.28625 9.61762 8.23875 9.66512C8.20306 9.70075 8.15556 9.71856 8.09619 9.71856H7.68631C7.41313 9.71856 7.19337 9.81956 7.02706 10.0215C6.86075 10.2234 6.77756 10.4967 6.77756 10.8411V13.71C6.77756 14.2802 6.69444 14.7435 6.52812 15.0999C6.37369 15.4562 6.12423 15.7176 5.77973 15.8839C5.70846 15.9195 5.70252 15.9551 5.76191 15.9908C6.10641 16.169 6.36181 16.4422 6.52812 16.8104C6.69444 17.1668 6.77756 17.6301 6.77756 18.2003V21.1404C6.77756 21.4849 6.86075 21.7581 7.02706 21.9601C7.19337 22.162 7.41313 22.263 7.68631 22.263H8.09619C8.15556 22.263 8.20306 22.2808 8.23875 22.3164C8.28625 22.364 8.31 22.4174 8.31 22.4768V24.2231C8.31 24.2824 8.28625 24.33 8.23875 24.3656C8.20306 24.4131 8.15556 24.4369 8.09619 24.4369H6.52812Z" fill="#2E92B8"/>
<path d="M20.0356 17.3889C20.4395 16.7001 20.6716 15.8984 20.6716 15.0439C20.6716 14.1893 20.4395 13.3876 20.0356 12.6988C19.6317 12.0107 19.0564 11.4354 18.3683 11.0315C17.6795 10.6276 16.8778 10.3956 16.0233 10.3956C15.1688 10.3956 14.3671 10.6276 13.6783 11.0315C12.9901 11.4354 12.4148 12.0107 12.0109 12.6988C11.6071 13.3877 11.375 14.1893 11.375 15.0439C11.375 15.8984 11.6071 16.7001 12.0109 17.3889C12.4148 18.0771 12.9901 18.6524 13.6783 19.0563C14.3671 19.4601 15.1688 19.6922 16.0233 19.6922C16.8778 19.6922 17.6795 19.4601 18.3683 19.0563C19.0564 18.6524 19.6317 18.0771 20.0356 17.3889ZM16.5784 17.2663C16.4005 17.3108 16.2146 17.3344 16.0233 17.3344C15.832 17.3344 15.6461 17.3108 15.4682 17.2663C14.6504 17.0622 14.005 16.4168 13.8009 15.599C13.7564 15.4211 13.7328 15.2352 13.7328 15.0439C13.7328 14.8526 13.7564 14.6666 13.8009 14.4888C14.005 13.6709 14.6504 13.0256 15.4682 12.8214C15.6461 12.777 15.832 12.7534 16.0233 12.7534C16.2146 12.7534 16.4006 12.777 16.5784 12.8214C17.3962 13.0256 18.0416 13.6709 18.2457 14.4888C18.2902 14.6666 18.3137 14.8526 18.3137 15.0439C18.3137 15.2352 18.2901 15.4211 18.2457 15.599C18.0416 16.4168 17.3962 17.0622 16.5784 17.2663Z" fill="#6A7282"/>
<path d="M17.2259 23.2834V20.5392C16.4518 20.7029 15.6491 20.7029 14.875 20.5392V23.2834C14.875 23.6073 15.0066 23.9009 15.2193 24.1134C15.4321 24.3259 15.7261 24.4574 16.0504 24.4574C16.6996 24.4574 17.2259 23.9317 17.2259 23.2834Z" fill="#6A7282"/>
</svg>
