<svg width="48" height="48" viewBox="0 0 48 48" fill="none" xmlns="http://www.w3.org/2000/svg">
<path d="M35.8556 36.6553C35.7666 36.6553 35.6864 36.6197 35.6151 36.5484C35.5616 36.495 35.5349 36.4237 35.5349 36.3346V33.7152C35.5349 33.6262 35.5616 33.546 35.6151 33.4747C35.6864 33.4212 35.7666 33.3945 35.8556 33.3945H36.4704C36.8802 33.3945 37.2098 33.243 37.4593 32.9401C37.7088 32.6372 37.8336 32.2274 37.8336 31.7107V27.3005C37.8336 26.4452 37.9583 25.7502 38.2077 25.2157C38.4572 24.6633 38.8403 24.2535 39.357 23.9862C39.4462 23.9327 39.4373 23.8792 39.3303 23.8258C38.8135 23.5763 38.4305 23.1844 38.181 22.6498C37.9493 22.1152 37.8336 21.4203 37.8336 20.565V16.2617C37.8336 15.745 37.7088 15.3352 37.4593 15.0322C37.2098 14.7293 36.8802 14.5778 36.4704 14.5778H35.8556C35.7666 14.5778 35.6864 14.5511 35.6151 14.4977C35.5616 14.4264 35.5349 14.3462 35.5349 14.2571V11.6645C35.5349 11.5754 35.5616 11.5042 35.6151 11.4506C35.6864 11.3794 35.7666 11.3438 35.8556 11.3438H38.2077C39.3125 11.3438 40.1499 11.6288 40.7202 12.199C41.3082 12.7514 41.6022 13.5622 41.6022 14.6313V20.0572C41.6022 20.7877 41.7269 21.349 41.9764 21.741C42.2437 22.1152 42.6446 22.3379 43.1792 22.4092C43.393 22.4271 43.4999 22.5428 43.4999 22.7567V25.0821C43.4999 25.278 43.393 25.3939 43.1792 25.4295C42.1279 25.5542 41.6022 26.3471 41.6022 27.8083V33.3411C41.6022 34.4102 41.3082 35.2298 40.7202 35.8C40.1321 36.3702 39.2947 36.6553 38.2077 36.6553H35.8556Z" fill="#47BE9B"/>
<path d="M9.79219 36.6553C8.70523 36.6553 7.86775 36.3702 7.27973 35.8C6.69172 35.2298 6.3977 34.4102 6.3977 33.3411V27.8083C6.3977 26.3471 5.87205 25.5542 4.82074 25.4295C4.60691 25.3939 4.5 25.278 4.5 25.0821V22.7567C4.5 22.5428 4.60691 22.4271 4.82074 22.4092C5.3553 22.3379 5.74732 22.1152 5.99677 21.741C6.26406 21.349 6.3977 20.7877 6.3977 20.0572V14.6313C6.3977 13.5622 6.6828 12.7514 7.25301 12.199C7.84103 11.6288 8.68742 11.3438 9.79219 11.3438H12.1443C12.2333 11.3438 12.3046 11.3794 12.3581 11.4506C12.4294 11.5042 12.465 11.5754 12.465 11.6645V14.2571C12.465 14.3462 12.4294 14.4264 12.3581 14.4977C12.3046 14.5511 12.2333 14.5778 12.1443 14.5778H11.5295C11.1197 14.5778 10.7901 14.7293 10.5406 15.0322C10.2911 15.3352 10.1663 15.745 10.1663 16.2617V20.565C10.1663 21.4203 10.0417 22.1152 9.79219 22.6498C9.56053 23.1844 9.18634 23.5763 8.6696 23.8258C8.56268 23.8792 8.55378 23.9327 8.64287 23.9862C9.15961 24.2535 9.54272 24.6633 9.79219 25.2157C10.0417 25.7502 10.1663 26.4452 10.1663 27.3005V31.7107C10.1663 32.2274 10.2911 32.6372 10.5406 32.9401C10.7901 33.243 11.1197 33.3945 11.5295 33.3945H12.1443C12.2333 33.3945 12.3046 33.4212 12.3581 33.4747C12.4294 33.546 12.465 33.6262 12.465 33.7152V36.3346C12.465 36.4237 12.4294 36.495 12.3581 36.5484C12.3046 36.6197 12.2333 36.6553 12.1443 36.6553H9.79219Z" fill="#2E92B8"/>
<path d="M30.0534 26.0834C30.6592 25.0502 31.0073 23.8477 31.0073 22.5658C31.0073 21.284 30.6592 20.0814 30.0534 19.0482C29.4476 18.016 28.5847 17.1531 27.5525 16.5473C26.5192 15.9414 25.3167 15.5934 24.0349 15.5934C22.7531 15.5934 21.5506 15.9414 20.5174 16.5473C19.4852 17.1531 18.6222 18.016 18.0164 19.0482C17.4106 20.0815 17.0625 21.284 17.0625 22.5658C17.0625 23.8477 17.4106 25.0502 18.0164 26.0834C18.6222 27.1156 19.4852 27.9786 20.5174 28.5844C21.5506 29.1902 22.7531 29.5383 24.0349 29.5383C25.3167 29.5383 26.5192 29.1902 27.5525 28.5844C28.5847 27.9786 29.4476 27.1156 30.0534 26.0834ZM24.8676 25.8995C24.6007 25.9661 24.3218 26.0016 24.0349 26.0016C23.748 26.0016 23.4691 25.9661 23.2023 25.8995C21.9756 25.5933 21.0075 24.6252 20.7013 23.3985C20.6346 23.1317 20.5992 22.8528 20.5992 22.5658C20.5992 22.2789 20.6346 21.9999 20.7013 21.7332C21.0075 20.5064 21.9756 19.5384 23.2023 19.2322C23.4691 19.1655 23.748 19.1302 24.0349 19.1302C24.3219 19.1302 24.6008 19.1655 24.8676 19.2322C26.0943 19.5384 27.0623 20.5064 27.3685 21.7332C27.4353 21.9999 27.4706 22.2789 27.4706 22.5658C27.4706 22.8528 27.4352 23.1317 27.3685 23.3985C27.0623 24.6252 26.0943 25.5933 24.8676 25.8995Z" fill="#6A7282"/>
<path d="M25.8388 34.9251V30.8089C24.6776 31.0543 23.4737 31.0544 22.3125 30.8089V34.9251C22.3125 35.411 22.5098 35.8514 22.829 36.1702C23.1481 36.4889 23.5891 36.6861 24.0757 36.6861C25.0494 36.6861 25.8388 35.8976 25.8388 34.9251Z" fill="#6A7282"/>
</svg>
