<svg width="191" height="32" viewBox="0 0 191 32" fill="none" xmlns="http://www.w3.org/2000/svg">
<path d="M39.5308 31.9612C39.4185 31.9612 39.3175 31.9162 39.2275 31.8262C39.1601 31.7587 39.1265 31.6687 39.1265 31.5562V28.2487C39.1265 28.1362 39.1601 28.035 39.2275 27.9449C39.3175 27.8775 39.4185 27.8437 39.5308 27.8437H40.3059C40.8225 27.8437 41.2381 27.6524 41.5526 27.2699C41.8671 26.8874 42.0244 26.37 42.0244 25.7175V20.1487C42.0244 19.0687 42.1816 18.1912 42.4961 17.5162C42.8107 16.8187 43.2936 16.3013 43.9451 15.9638C44.0575 15.8962 44.0462 15.8287 43.9114 15.7612C43.2599 15.4462 42.777 14.9513 42.4625 14.2763C42.1704 13.6013 42.0244 12.7237 42.0244 11.6438V6.20993C42.0244 5.55754 41.8671 5.03999 41.5526 4.65751C41.2381 4.27502 40.8225 4.08372 40.3059 4.08372H39.5308C39.4185 4.08372 39.3175 4.04999 39.2275 3.98251C39.1601 3.89254 39.1265 3.79121 39.1265 3.67875V0.404975C39.1265 0.292514 39.1601 0.202547 39.2275 0.134952C39.3175 0.044984 39.4185 0 39.5308 0H42.4961C43.8889 0 44.9448 0.359991 45.6637 1.07997C46.405 1.77746 46.7757 2.8012 46.7757 4.1512V11.0025C46.7757 11.925 46.9329 12.6338 47.2474 13.1287C47.5844 13.6013 48.0899 13.8824 48.7638 13.9725C49.0334 13.995 49.1681 14.1412 49.1681 14.4112V17.3475C49.1681 17.5949 49.0334 17.7412 48.7638 17.7862C47.4384 17.9437 46.7757 18.9449 46.7757 20.79V27.7762C46.7757 29.1262 46.405 30.1612 45.6637 30.8812C44.9223 31.6012 43.8665 31.9612 42.4961 31.9612H39.5308Z" fill="#47BE9B"/>
<path d="M6.672 31.9612C5.30164 31.9612 4.24581 31.6012 3.50448 30.8812C2.76315 30.1612 2.39248 29.1262 2.39248 27.7762V20.79C2.39248 18.9449 1.72978 17.9437 0.404362 17.7862C0.134787 17.7412 0 17.5949 0 17.3475V14.4112C0 14.1412 0.134787 13.995 0.404362 13.9725C1.0783 13.8824 1.57252 13.6013 1.88702 13.1287C2.22399 12.6338 2.39248 11.925 2.39248 11.0025V4.1512C2.39248 2.8012 2.75191 1.77746 3.47079 1.07997C4.21212 0.359991 5.27919 0 6.672 0H9.63735C9.74963 0 9.83946 0.044984 9.90694 0.134952C9.99677 0.202547 10.0417 0.292514 10.0417 0.404975V3.67875C10.0417 3.79121 9.99677 3.89254 9.90694 3.98251C9.83946 4.04999 9.74963 4.08372 9.63735 4.08372H8.86224C8.34561 4.08372 7.93005 4.27502 7.61553 4.65751C7.30102 5.03999 7.14371 5.55754 7.14371 6.20993V11.6438C7.14371 12.7237 6.98651 13.6013 6.672 14.2763C6.37994 14.9513 5.90819 15.4462 5.25672 15.7612C5.12193 15.8287 5.1107 15.8962 5.22302 15.9638C5.87449 16.3013 6.35749 16.8187 6.672 17.5162C6.98651 18.1912 7.14371 19.0687 7.14371 20.1487V25.7175C7.14371 26.37 7.30102 26.8874 7.61553 27.2699C7.93005 27.6524 8.34561 27.8437 8.86224 27.8437H9.63735C9.74963 27.8437 9.83946 27.8775 9.90694 27.9449C9.99677 28.035 10.0417 28.1362 10.0417 28.2487V31.5562C10.0417 31.6687 9.99677 31.7587 9.90694 31.8262C9.83946 31.9162 9.74963 31.9612 9.63735 31.9612H6.672Z" fill="#2E92B8"/>
<path d="M32.2159 18.6119C32.9797 17.3073 33.4185 15.7888 33.4185 14.1702C33.4185 12.5516 32.9797 11.0332 32.2159 9.72854C31.4521 8.42518 30.3642 7.3355 29.0629 6.57054C27.7603 5.80557 26.2442 5.36603 24.6281 5.36603C23.0122 5.36603 21.4961 5.80557 20.1935 6.57054C18.8922 7.3355 17.8043 8.42518 17.0405 9.72854C16.2767 11.0333 15.8379 12.5516 15.8379 14.1702C15.8379 15.7888 16.2767 17.3073 17.0405 18.6119C17.8043 19.9153 18.8922 21.005 20.1935 21.7699C21.4961 22.5349 23.0122 22.9745 24.6281 22.9745C26.2442 22.9745 27.7603 22.5349 29.0629 21.7699C30.3642 21.005 31.4521 19.9153 32.2159 18.6119ZM25.6779 18.3797C25.3416 18.4638 24.9899 18.5086 24.6281 18.5086C24.2665 18.5086 23.9148 18.4638 23.5785 18.3797C22.0319 17.9931 20.8115 16.7707 20.4254 15.2217C20.3413 14.8848 20.2967 14.5326 20.2967 14.1702C20.2967 13.8079 20.3413 13.4557 20.4254 13.1189C20.8115 11.5698 22.0319 10.3474 23.5785 9.9608C23.9148 9.87663 24.2665 9.832 24.6281 9.832C24.9901 9.832 25.3417 9.87663 25.6779 9.9608C27.2245 10.3474 28.445 11.5698 28.831 13.1189C28.9151 13.4557 28.9597 13.8079 28.9597 14.1702C28.9597 14.5326 28.915 14.8848 28.831 15.2217C28.445 16.7707 27.2245 17.9931 25.6779 18.3797Z" fill="#6A7282"/>
<path d="M26.9024 29.7764V24.5788C25.4384 24.8887 23.9206 24.8888 22.4567 24.5788V29.7764C22.4567 30.3899 22.7055 30.9461 23.1078 31.3485C23.5101 31.751 24.0661 32 24.6795 32C25.9072 32 26.9024 31.0044 26.9024 29.7764Z" fill="#6A7282"/>
<path d="M69.145 6.7219V10.3359H64.2455V25.2405H59.7411V10.3359H54.8416V6.7219H69.145Z" fill="#2E92B8"/>
<path d="M85.2613 17.6431C85.2613 18.0652 85.235 18.5049 85.1823 18.9621H74.9881C75.0583 19.8766 75.3481 20.5801 75.8574 21.0725C76.3842 21.5473 77.0252 21.7847 77.7803 21.7847C78.9042 21.7847 79.6857 21.3099 80.1247 20.3602H84.9189C84.673 21.3275 84.2252 22.198 83.5754 22.9718C82.9432 23.7456 82.1442 24.3524 81.1784 24.792C80.2125 25.2317 79.1325 25.4515 77.9384 25.4515C76.4983 25.4515 75.2164 25.1438 74.0925 24.5282C72.9686 23.9127 72.0905 23.0334 71.4583 21.8903C70.8261 20.7471 70.51 19.4106 70.51 17.8805C70.51 16.3505 70.8174 15.0139 71.432 13.8708C72.0642 12.7277 72.9422 11.8484 74.0661 11.2328C75.1901 10.6173 76.4808 10.3095 77.9384 10.3095C79.3608 10.3095 80.6252 10.6085 81.7315 11.2065C82.8379 11.8044 83.6984 12.6573 84.313 13.7653C84.9452 14.8732 85.2613 16.1659 85.2613 17.6431ZM80.6515 16.456C80.6515 15.6822 80.3881 15.0667 79.8613 14.6094C79.3345 14.1522 78.6759 13.9236 77.8857 13.9236C77.1305 13.9236 76.4896 14.1434 75.9627 14.5831C75.4535 15.0227 75.1374 15.6471 75.0144 16.456H80.6515Z" fill="#2E92B8"/>
<path d="M93.6171 25.4515C92.3352 25.4515 91.1937 25.2317 90.1927 24.792C89.1918 24.3524 88.4015 23.7544 87.822 22.9982C87.2425 22.2244 86.9176 21.3627 86.8474 20.413H91.2991C91.3518 20.923 91.5888 21.3363 92.0103 21.6528C92.4318 21.9694 92.9498 22.1277 93.5644 22.1277C94.1264 22.1277 94.5566 22.0222 94.8552 21.8111C95.1713 21.5825 95.3293 21.2923 95.3293 20.9406C95.3293 20.5185 95.1098 20.2107 94.6708 20.0173C94.2318 19.8063 93.5205 19.5776 92.5371 19.3314C91.4835 19.0852 90.6054 18.8302 89.903 18.5664C89.2005 18.285 88.5947 17.8542 88.0854 17.2738C87.5761 16.6759 87.3215 15.8757 87.3215 14.8732C87.3215 14.0291 87.5498 13.2641 88.0064 12.5782C88.4805 11.8747 89.1654 11.3208 90.061 10.9163C90.9742 10.5118 92.0542 10.3095 93.301 10.3095C95.1449 10.3095 96.5937 10.7668 97.6474 11.6813C98.7186 12.5958 99.3332 13.8093 99.4913 15.3217H95.3293C95.2591 14.8117 95.0308 14.4072 94.6445 14.1082C94.2757 13.8093 93.784 13.6598 93.1693 13.6598C92.6425 13.6598 92.2386 13.7653 91.9576 13.9763C91.6766 14.1698 91.5361 14.4424 91.5361 14.7941C91.5361 15.2162 91.7557 15.5327 92.1947 15.7438C92.6513 15.9548 93.3537 16.1659 94.302 16.3769C95.3908 16.6583 96.2776 16.9397 96.9625 17.221C97.6474 17.4848 98.2445 17.9245 98.7537 18.54C99.2806 19.138 99.5528 19.947 99.5703 20.967C99.5703 21.8287 99.3245 22.6025 98.8328 23.2884C98.3586 23.9567 97.6649 24.4843 96.7518 24.8712C95.8562 25.2581 94.8113 25.4515 93.6171 25.4515Z" fill="#2E92B8"/>
<path d="M110.518 21.4154V25.2405H108.227C106.593 25.2405 105.32 24.8448 104.407 24.0534C103.494 23.2444 103.037 21.9342 103.037 20.1228V14.2665H101.246V10.5206H103.037V6.93294H107.542V10.5206H110.492V14.2665H107.542V20.1756C107.542 20.6152 107.647 20.9318 107.858 21.1252C108.069 21.3187 108.42 21.4154 108.911 21.4154H110.518Z" fill="#2E92B8"/>
<path d="M125.303 12.5782C124.969 11.9627 124.486 11.4966 123.854 11.1801C123.239 10.8459 122.51 10.6789 121.667 10.6789C120.21 10.6789 119.042 11.1625 118.164 12.1298C117.286 13.0794 116.847 14.3544 116.847 15.9548C116.847 17.6607 117.303 18.9973 118.217 19.9645C119.147 20.9142 120.421 21.389 122.036 21.389C123.143 21.389 124.073 21.1077 124.828 20.5449C125.601 19.9821 126.163 19.1731 126.514 18.118H120.798V14.7941H130.597V18.9885C130.263 20.114 129.693 21.1604 128.885 22.1277C128.095 23.0949 127.085 23.8775 125.856 24.4755C124.626 25.0734 123.239 25.3724 121.694 25.3724C119.867 25.3724 118.234 24.9767 116.794 24.1853C115.372 23.3763 114.257 22.2596 113.449 20.8351C112.659 19.4106 112.263 17.7838 112.263 15.9548C112.263 14.1258 112.659 12.4991 113.449 11.0746C114.257 9.63247 115.372 8.51573 116.794 7.72433C118.217 6.91535 119.841 6.51086 121.667 6.51086C123.88 6.51086 125.742 7.04725 127.252 8.12003C128.78 9.19281 129.789 10.6789 130.281 12.5782H125.303Z" fill="#2E92B8"/>
<path d="M146.948 17.6431C146.948 18.0652 146.922 18.5049 146.869 18.9621H136.675C136.745 19.8766 137.035 20.5801 137.544 21.0725C138.071 21.5473 138.712 21.7847 139.467 21.7847C140.591 21.7847 141.372 21.3099 141.811 20.3602H146.605C146.36 21.3275 145.912 22.198 145.262 22.9718C144.63 23.7456 143.831 24.3524 142.865 24.792C141.899 25.2317 140.819 25.4515 139.625 25.4515C138.185 25.4515 136.903 25.1438 135.779 24.5282C134.655 23.9127 133.777 23.0334 133.145 21.8903C132.513 20.7471 132.197 19.4106 132.197 17.8805C132.197 16.3505 132.504 15.0139 133.119 13.8708C133.751 12.7277 134.629 11.8484 135.753 11.2328C136.877 10.6173 138.167 10.3095 139.625 10.3095C141.047 10.3095 142.312 10.6085 143.418 11.2065C144.524 11.8044 145.385 12.6573 146 13.7653C146.632 14.8732 146.948 16.1659 146.948 17.6431ZM142.338 16.456C142.338 15.6822 142.075 15.0667 141.548 14.6094C141.021 14.1522 140.362 13.9236 139.572 13.9236C138.817 13.9236 138.176 14.1434 137.649 14.5831C137.14 15.0227 136.824 15.6471 136.701 16.456H142.338Z" fill="#2E92B8"/>
<path d="M158.28 10.3623C160.001 10.3623 161.371 10.9251 162.39 12.0506C163.426 13.1586 163.944 14.6886 163.944 16.6407V25.2405H159.466V17.2474C159.466 16.2626 159.211 15.4976 158.702 14.9524C158.192 14.4072 157.508 14.1346 156.647 14.1346C155.787 14.1346 155.102 14.4072 154.592 14.9524C154.083 15.4976 153.829 16.2626 153.829 17.2474V25.2405H149.324V10.5206H153.829V12.4727C154.285 11.822 154.9 11.312 155.672 10.9427C156.445 10.5558 157.314 10.3623 158.28 10.3623Z" fill="#2E92B8"/>
<path d="M178.585 21.9694H171.684L170.577 25.2405H165.862L172.553 6.7219H177.768L184.459 25.2405H179.691L178.585 21.9694ZM177.426 18.4873L175.134 11.7077L172.869 18.4873H177.426Z" fill="#2E92B8"/>
<path d="M191 6.7219V25.2405H186.496V6.7219H191Z" fill="#2E92B8"/>
</svg>
